<?xml version="1.0" encoding="UTF-8"?>
<!DOCTYPE svg PUBLIC "-//W3C//DTD SVG 1.1//EN" "http://www.w3.org/Graphics/SVG/1.1/DTD/svg11.dtd">
<svg xmlns="http://www.w3.org/2000/svg" version="1.1" width="650px" height="478px" style="shape-rendering:geometricPrecision; text-rendering:geometricPrecision; image-rendering:optimizeQuality; fill-rule:evenodd; clip-rule:evenodd" xmlns:xlink="http://www.w3.org/1999/xlink">
<g><path style="opacity:1" fill="#fefefe" d="M -0.5,-0.5 C 216.167,-0.5 432.833,-0.5 649.5,-0.5C 649.5,158.833 649.5,318.167 649.5,477.5C 432.833,477.5 216.167,477.5 -0.5,477.5C -0.5,318.167 -0.5,158.833 -0.5,-0.5 Z"/></g>
<g><path style="opacity:1" fill="#f314cf" d="M 233.5,188.5 C 215.167,189.833 196.833,189.833 178.5,188.5C 187.374,182.808 196.541,177.475 206,172.5C 215.303,177.645 224.47,182.979 233.5,188.5 Z"/></g>
<g><path style="opacity:1" fill="#f412be" d="M 178.5,188.5 C 196.833,189.833 215.167,189.833 233.5,188.5C 238.833,191.5 244.167,194.5 249.5,197.5C 220.338,198.498 191.005,198.831 161.5,198.5C 166.665,194.414 172.332,191.08 178.5,188.5 Z"/></g>
<g><path style="opacity:1" fill="#f21fe6" d="M 281.5,202.5 C 279.833,202.5 278.167,202.5 276.5,202.5C 276.724,198.438 278.724,195.605 282.5,194C 293.495,193.5 304.495,193.333 315.5,193.5C 315.5,195.167 315.5,196.833 315.5,198.5C 304.828,198.333 294.161,198.5 283.5,199C 282.177,199.816 281.511,200.983 281.5,202.5 Z"/></g>
<g><path style="opacity:1" fill="#f21eeb" d="M 320.5,193.5 C 333.5,193.5 346.5,193.5 359.5,193.5C 359.5,195.167 359.5,196.833 359.5,198.5C 346.5,198.5 333.5,198.5 320.5,198.5C 320.5,196.833 320.5,195.167 320.5,193.5 Z"/></g>
<g><path style="opacity:1" fill="#f320e4" d="M 413.5,201.5 C 412.549,202.919 412.216,204.585 412.5,206.5C 411.167,206.5 409.833,206.5 408.5,206.5C 408.5,204.5 408.5,202.5 408.5,200.5C 409.591,197.572 411.591,195.406 414.5,194C 425.495,193.5 436.495,193.333 447.5,193.5C 447.5,195.167 447.5,196.833 447.5,198.5C 436.828,198.333 426.161,198.5 415.5,199C 414.619,199.708 413.953,200.542 413.5,201.5 Z"/></g>
<g><path style="opacity:1" fill="#f21eeb" d="M 451.5,193.5 C 464.5,193.5 477.5,193.5 490.5,193.5C 490.5,195.167 490.5,196.833 490.5,198.5C 477.5,198.5 464.5,198.5 451.5,198.5C 451.5,196.833 451.5,195.167 451.5,193.5 Z"/></g>
<g><path style="opacity:1" fill="#f517ae" d="M 249.5,197.5 C 254.037,199.93 258.37,202.597 262.5,205.5C 262.5,207.167 262.5,208.833 262.5,210.5C 255.904,209.205 249.071,208.538 242,208.5C 235.5,208.667 229,208.833 222.5,209C 223.056,209.383 223.389,209.883 223.5,210.5C 217.517,207.508 211.517,204.508 205.5,201.5C 199.685,204.241 194.018,207.241 188.5,210.5C 175.542,208.519 162.209,207.852 148.5,208.5C 148.297,206.61 148.963,205.11 150.5,204C 153.91,201.628 157.577,199.795 161.5,198.5C 191.005,198.831 220.338,198.498 249.5,197.5 Z"/></g>
<g><path style="opacity:1" fill="#f30ed6" d="M 374.5,199.5 C 373.081,200.451 371.415,200.784 369.5,200.5C 368.566,201.568 368.232,202.901 368.5,204.5C 367.167,204.5 365.833,204.5 364.5,204.5C 364.5,200.833 364.5,197.167 364.5,193.5C 366.527,193.338 368.527,193.505 370.5,194C 371.665,195.992 372.998,197.825 374.5,199.5 Z"/></g>
<g><path style="opacity:1" fill="#f206d8" d="M 402.5,193.5 C 402.5,196.167 402.5,198.833 402.5,201.5C 401.167,201.5 399.833,201.5 398.5,201.5C 398.5,198.833 398.5,196.167 398.5,193.5C 399.833,193.5 401.167,193.5 402.5,193.5 Z"/></g>
<g><path style="opacity:1" fill="#f422d1" d="M 500.5,205.5 C 499.167,205.5 497.833,205.5 496.5,205.5C 496.768,203.901 496.434,202.568 495.5,201.5C 495.5,198.833 495.5,196.167 495.5,193.5C 497.167,193.5 498.833,193.5 500.5,193.5C 500.5,197.5 500.5,201.5 500.5,205.5 Z"/></g>
<g><path style="opacity:1" fill="#f627b5" d="M 374.5,199.5 C 376.471,201.808 378.471,204.142 380.5,206.5C 378.585,206.216 376.919,206.549 375.5,207.5C 373.5,205.5 371.5,203.5 369.5,201.5C 369.5,201.167 369.5,200.833 369.5,200.5C 371.415,200.784 373.081,200.451 374.5,199.5 Z"/></g>
<g><path style="opacity:1" fill="#f841ac" d="M 402.5,193.5 C 403.833,199.167 403.833,204.833 402.5,210.5C 401.432,209.566 400.099,209.232 398.5,209.5C 398.5,206.833 398.5,204.167 398.5,201.5C 399.833,201.5 401.167,201.5 402.5,201.5C 402.5,198.833 402.5,196.167 402.5,193.5 Z"/></g>
<g><path style="opacity:1" fill="#f9479f" d="M 495.5,201.5 C 496.434,202.568 496.768,203.901 496.5,205.5C 497.833,205.5 499.167,205.5 500.5,205.5C 500.5,206.833 500.5,208.167 500.5,209.5C 499.167,209.5 497.833,209.5 496.5,209.5C 496.5,212.5 496.5,215.5 496.5,218.5C 496.5,219.167 496.5,219.833 496.5,220.5C 496.167,220.5 495.833,220.5 495.5,220.5C 495.5,214.167 495.5,207.833 495.5,201.5 Z"/></g>
<g><path style="opacity:1" fill="#f82b8e" d="M 380.5,206.5 C 382.167,208.5 383.833,210.5 385.5,212.5C 383.585,212.216 381.919,212.549 380.5,213.5C 378.11,212.109 376.443,210.109 375.5,207.5C 376.919,206.549 378.585,206.216 380.5,206.5 Z"/></g>
<g><path style="opacity:1" fill="#f9268b" d="M 276.5,202.5 C 278.167,202.5 279.833,202.5 281.5,202.5C 281.338,204.527 281.505,206.527 282,208.5C 282.75,209.126 283.584,209.626 284.5,210C 292.677,210.171 300.677,210.671 308.5,211.5C 298.652,211.173 288.986,211.506 279.5,212.5C 278.21,211.942 277.377,210.942 277,209.5C 276.503,207.19 276.337,204.857 276.5,202.5 Z"/></g>
<g><path style="opacity:1" fill="#f7199a" d="M 148.5,208.5 C 162.209,207.852 175.542,208.519 188.5,210.5C 183.395,213.892 178.062,217.059 172.5,220C 171.748,220.671 171.414,221.504 171.5,222.5C 170.596,221.791 170.263,220.791 170.5,219.5C 163.167,219.5 155.833,219.5 148.5,219.5C 148.5,215.833 148.5,212.167 148.5,208.5 Z"/></g>
<g><path style="opacity:1" fill="#f6189c" d="M 262.5,210.5 C 262.663,212.857 262.497,215.19 262,217.5C 257.586,216.199 252.919,215.532 248,215.5C 243.5,215.667 239,215.833 234.5,216C 235.056,216.383 235.389,216.883 235.5,217.5C 231.164,215.668 227.164,213.335 223.5,210.5C 223.389,209.883 223.056,209.383 222.5,209C 229,208.833 235.5,208.667 242,208.5C 249.071,208.538 255.904,209.205 262.5,210.5 Z"/></g>
<g><path style="opacity:1" fill="#f92a79" d="M 320.5,210.5 C 333.5,210.5 346.5,210.5 359.5,210.5C 359.5,212.167 359.5,213.833 359.5,215.5C 346.5,215.5 333.5,215.5 320.5,215.5C 320.5,213.833 320.5,212.167 320.5,210.5 Z"/></g>
<g><path style="opacity:1" fill="#f81287" d="M 364.5,204.5 C 365.833,204.5 367.167,204.5 368.5,204.5C 368.5,207.167 368.5,209.833 368.5,212.5C 367.167,212.5 365.833,212.5 364.5,212.5C 364.5,209.833 364.5,207.167 364.5,204.5 Z"/></g>
<g><path style="opacity:1" fill="#f92a79" d="M 451.5,210.5 C 464.5,210.5 477.5,210.5 490.5,210.5C 490.5,212.167 490.5,213.833 490.5,215.5C 477.5,215.5 464.5,215.5 451.5,215.5C 451.5,213.833 451.5,212.167 451.5,210.5 Z"/></g>
<g><path style="opacity:1" fill="#f92972" d="M 308.5,211.5 C 312.167,211.833 314.167,213.833 314.5,217.5C 314.5,217.833 314.5,218.167 314.5,218.5C 313.167,218.5 311.833,218.5 310.5,218.5C 309.733,217.828 309.066,216.995 308.5,216C 299.833,215.667 291.167,215.333 282.5,215C 281.429,214.148 280.429,213.315 279.5,212.5C 288.986,211.506 298.652,211.173 308.5,211.5 Z"/></g>
<g><path style="opacity:1" fill="#f9267d" d="M 408.5,200.5 C 408.5,202.5 408.5,204.5 408.5,206.5C 409.833,206.5 411.167,206.5 412.5,206.5C 412.216,204.585 412.549,202.919 413.5,201.5C 413.02,204.685 413.686,207.519 415.5,210C 423.833,210.333 432.167,210.667 440.5,211C 441.942,211.377 442.942,212.21 443.5,213.5C 433.319,213.173 423.319,213.506 413.5,214.5C 408.361,210.92 406.694,206.254 408.5,200.5 Z"/></g>
<g><path style="opacity:1" fill="#fa396b" d="M 413.5,214.5 C 423.319,213.506 433.319,213.173 443.5,213.5C 444.458,213.953 445.292,214.619 446,215.5C 446.499,219.152 446.665,222.818 446.5,226.5C 445.167,226.5 443.833,226.5 442.5,226.5C 443.231,222.397 442.231,218.897 439.5,216C 430.756,215.805 422.089,215.305 413.5,214.5 Z"/></g>
<g><path style="opacity:1" fill="#f72097" d="M 224.5,218.5 C 211.833,218.5 199.167,218.5 186.5,218.5C 192.559,214.459 198.892,210.793 205.5,207.5C 212.35,210.42 218.683,214.087 224.5,218.5 Z"/></g>
<g><path style="opacity:1" fill="#fb4267" d="M 385.5,212.5 C 389.167,217.167 392.833,221.833 396.5,226.5C 394.833,226.5 393.167,226.5 391.5,226.5C 387.487,222.485 383.821,218.152 380.5,213.5C 381.919,212.549 383.585,212.216 385.5,212.5 Z"/></g>
<g><path style="opacity:1" fill="#fa2269" d="M 398.5,209.5 C 400.099,209.232 401.432,209.566 402.5,210.5C 402.5,213.167 402.5,215.833 402.5,218.5C 401.167,218.5 399.833,218.5 398.5,218.5C 398.5,215.5 398.5,212.5 398.5,209.5 Z"/></g>
<g><path style="opacity:1" fill="#fa2269" d="M 500.5,209.5 C 500.5,212.5 500.5,215.5 500.5,218.5C 499.167,218.5 497.833,218.5 496.5,218.5C 496.5,215.5 496.5,212.5 496.5,209.5C 497.833,209.5 499.167,209.5 500.5,209.5 Z"/></g>
<g><path style="opacity:1" fill="#fa2e62" d="M 364.5,212.5 C 365.833,212.5 367.167,212.5 368.5,212.5C 368.5,215.167 368.5,217.833 368.5,220.5C 367.167,220.5 365.833,220.5 364.5,220.5C 364.5,217.833 364.5,215.167 364.5,212.5 Z"/></g>
<g><path style="opacity:1" fill="#f81d8a" d="M 186.5,218.5 C 199.167,218.5 211.833,218.5 224.5,218.5C 228.836,220.332 232.836,222.665 236.5,225.5C 228.546,224.864 220.546,224.531 212.5,224.5C 204.802,224.503 197.468,225.169 190.5,226.5C 187.393,225.111 184.393,223.445 181.5,221.5C 182.94,220.048 184.606,219.048 186.5,218.5 Z"/></g>
<g><path style="opacity:1" fill="#f81883" d="M 148.5,219.5 C 155.833,219.5 163.167,219.5 170.5,219.5C 170.263,220.791 170.596,221.791 171.5,222.5C 175.201,224.012 178.534,226.012 181.5,228.5C 170.5,228.5 159.5,228.5 148.5,228.5C 148.5,225.5 148.5,222.5 148.5,219.5 Z"/></g>
<g><path style="opacity:1" fill="#f9358f" d="M 262.5,205.5 C 263.822,214.675 263.822,224.008 262.5,233.5C 253.272,228.392 244.272,223.059 235.5,217.5C 235.389,216.883 235.056,216.383 234.5,216C 239,215.833 243.5,215.667 248,215.5C 252.919,215.532 257.586,216.199 262,217.5C 262.497,215.19 262.663,212.857 262.5,210.5C 262.5,208.833 262.5,207.167 262.5,205.5 Z"/></g>
<g><path style="opacity:1" fill="#fb5159" d="M 310.5,218.5 C 311.833,218.5 313.167,218.5 314.5,218.5C 314.5,221.167 314.5,223.833 314.5,226.5C 313.167,226.5 311.833,226.5 310.5,226.5C 310.5,223.833 310.5,221.167 310.5,218.5 Z"/></g>
<g><path style="opacity:1" fill="#fb5159" d="M 398.5,218.5 C 399.833,218.5 401.167,218.5 402.5,218.5C 402.5,221.167 402.5,223.833 402.5,226.5C 401.167,226.5 399.833,226.5 398.5,226.5C 398.5,223.833 398.5,221.167 398.5,218.5 Z"/></g>
<g><path style="opacity:1" fill="#fb5159" d="M 496.5,218.5 C 497.833,218.5 499.167,218.5 500.5,218.5C 500.5,221.167 500.5,223.833 500.5,226.5C 499.167,226.5 497.833,226.5 496.5,226.5C 496.5,224.5 496.5,222.5 496.5,220.5C 496.5,219.833 496.5,219.167 496.5,218.5 Z"/></g>
<g><path style="opacity:1" fill="#fd756d" d="M 369.5,200.5 C 369.5,200.833 369.5,201.167 369.5,201.5C 369.5,212.5 369.5,223.5 369.5,234.5C 367.833,234.5 366.167,234.5 364.5,234.5C 364.5,229.833 364.5,225.167 364.5,220.5C 365.833,220.5 367.167,220.5 368.5,220.5C 368.5,217.833 368.5,215.167 368.5,212.5C 368.5,209.833 368.5,207.167 368.5,204.5C 368.232,202.901 368.566,201.568 369.5,200.5 Z"/></g>
<g><path style="opacity:1" fill="#fc9b7d" d="M 320.5,230.5 C 333.323,229.505 346.323,229.171 359.5,229.5C 359.784,231.415 359.451,233.081 358.5,234.5C 358.5,233.167 358.5,231.833 358.5,230.5C 345.833,230.5 333.167,230.5 320.5,230.5 Z"/></g>
<g><path style="opacity:1" fill="#fc7851" d="M 391.5,226.5 C 393.167,226.5 394.833,226.5 396.5,226.5C 397.396,227.506 398.062,227.506 398.5,226.5C 399.833,226.5 401.167,226.5 402.5,226.5C 402.5,229.167 402.5,231.833 402.5,234.5C 397.206,234.223 393.54,231.556 391.5,226.5 Z"/></g>
<g><path style="opacity:1" fill="#fc9e81" d="M 438.5,229.5 C 428.681,230.494 418.681,230.827 408.5,230.5C 408.5,231.833 408.5,233.167 408.5,234.5C 407.549,233.081 407.216,231.415 407.5,229.5C 417.833,229.5 428.167,229.5 438.5,229.5 Z"/></g>
<g><path style="opacity:1" fill="#fc9c7e" d="M 490.5,230.5 C 477.833,230.5 465.167,230.5 452.5,230.5C 452.5,231.833 452.5,233.167 452.5,234.5C 451.549,233.081 451.216,231.415 451.5,229.5C 464.677,229.171 477.677,229.505 490.5,230.5 Z"/></g>
<g><path style="opacity:1" fill="#f91b77" d="M 148.5,228.5 C 159.5,228.5 170.5,228.5 181.5,228.5C 186.024,230.043 190.024,232.377 193.5,235.5C 178.548,234.532 163.548,234.199 148.5,234.5C 148.5,232.5 148.5,230.5 148.5,228.5 Z"/></g>
<g><path style="opacity:1" fill="#fd855d" d="M 495.5,220.5 C 495.833,220.5 496.167,220.5 496.5,220.5C 496.5,222.5 496.5,224.5 496.5,226.5C 497.833,226.5 499.167,226.5 500.5,226.5C 500.5,229.167 500.5,231.833 500.5,234.5C 498.833,234.5 497.167,234.5 495.5,234.5C 495.5,229.833 495.5,225.167 495.5,220.5 Z"/></g>
<g><path style="opacity:1" fill="#fc8551" d="M 314.5,217.5 C 317.223,224.637 315.223,230.137 308.5,234C 297.839,234.5 287.172,234.667 276.5,234.5C 276.5,232.833 276.5,231.167 276.5,229.5C 287.172,229.667 297.839,229.5 308.5,229C 309.066,228.005 309.733,227.172 310.5,226.5C 311.833,226.5 313.167,226.5 314.5,226.5C 314.5,223.833 314.5,221.167 314.5,218.5C 314.5,218.167 314.5,217.833 314.5,217.5 Z"/></g>
<g><path style="opacity:1" fill="#fc844d" d="M 442.5,226.5 C 443.833,226.5 445.167,226.5 446.5,226.5C 445.817,230.02 443.817,232.52 440.5,234C 429.839,234.5 419.172,234.667 408.5,234.5C 408.5,233.167 408.5,231.833 408.5,230.5C 418.681,230.827 428.681,230.494 438.5,229.5C 440.141,228.853 441.474,227.853 442.5,226.5 Z"/></g>
<g><path style="opacity:1" fill="#fc884a" d="M 320.5,230.5 C 333.167,230.5 345.833,230.5 358.5,230.5C 358.5,231.833 358.5,233.167 358.5,234.5C 345.833,234.5 333.167,234.5 320.5,234.5C 320.5,233.167 320.5,231.833 320.5,230.5 Z"/></g>
<g><path style="opacity:1" fill="#fc884a" d="M 490.5,230.5 C 490.5,231.833 490.5,233.167 490.5,234.5C 477.833,234.5 465.167,234.5 452.5,234.5C 452.5,233.167 452.5,231.833 452.5,230.5C 465.167,230.5 477.833,230.5 490.5,230.5 Z"/></g>
<g><path style="opacity:1" fill="#f91d75" d="M 236.5,225.5 C 243.996,228.745 250.996,232.745 257.5,237.5C 242.496,237.333 227.496,237.5 212.5,238C 213.056,238.383 213.389,238.883 213.5,239.5C 205.572,235.559 197.905,231.226 190.5,226.5C 197.468,225.169 204.802,224.503 212.5,224.5C 220.546,224.531 228.546,224.864 236.5,225.5 Z"/></g>
<g><path style="opacity:1" fill="#fa236a" d="M 148.5,234.5 C 163.548,234.199 178.548,234.532 193.5,235.5C 201.792,239.312 209.792,243.646 217.5,248.5C 202.871,250.484 187.871,251.15 172.5,250.5C 164.887,246.358 157.221,242.191 149.5,238C 148.663,236.989 148.33,235.822 148.5,234.5 Z"/></g>
<g><path style="opacity:1" fill="#fa2868" d="M 257.5,237.5 C 259.17,237.751 260.67,238.418 262,239.5C 262.5,245.825 262.666,252.158 262.5,258.5C 254.316,258.826 246.316,258.492 238.5,257.5C 240.233,256.992 240.566,256.159 239.5,255C 230.605,250.059 221.938,244.892 213.5,239.5C 213.389,238.883 213.056,238.383 212.5,238C 227.496,237.5 242.496,237.333 257.5,237.5 Z"/></g>
<g><path style="opacity:1" fill="#f118ec" d="M 281.5,248.5 C 279.833,248.5 278.167,248.5 276.5,248.5C 277.183,244.98 279.183,242.48 282.5,241C 294.162,240.5 305.829,240.333 317.5,240.5C 317.5,242.167 317.5,243.833 317.5,245.5C 306.495,245.333 295.495,245.5 284.5,246C 283.627,247.045 282.627,247.878 281.5,248.5 Z"/></g>
<g><path style="opacity:1" fill="#f21ae7" d="M 407.5,247.5 C 406.448,249.256 404.781,249.923 402.5,249.5C 401.547,247.39 399.881,246.223 397.5,246C 391.167,245.333 384.833,245.333 378.5,246C 376.676,246.66 375.343,247.827 374.5,249.5C 372.219,249.923 370.552,249.256 369.5,247.5C 373.886,241.059 380.052,238.726 388,240.5C 392.917,240.423 397.75,240.923 402.5,242C 405.056,243.055 406.723,244.888 407.5,247.5 Z"/></g>
<g><path style="opacity:1" fill="#f110ea" d="M 345.5,245.5 C 344.221,246.968 342.554,247.635 340.5,247.5C 334.926,245.547 328.926,244.88 322.5,245.5C 322.5,243.833 322.5,242.167 322.5,240.5C 336.167,240.5 349.833,240.5 363.5,240.5C 363.5,242.167 363.5,243.833 363.5,245.5C 357.5,245.5 351.5,245.5 345.5,245.5 Z"/></g>
<g><path style="opacity:1" fill="#f111ea" d="M 459.5,240.5 C 473.167,240.5 486.833,240.5 500.5,240.5C 500.5,242.167 500.5,243.833 500.5,245.5C 486.833,245.5 473.167,245.5 459.5,245.5C 459.5,243.833 459.5,242.167 459.5,240.5 Z"/></g>
<g><path style="opacity:1" fill="#fffefe" d="M 402.5,249.5 C 403.43,253.4 403.763,257.4 403.5,261.5C 403.5,265.167 403.5,268.833 403.5,272.5C 402.797,274.716 401.464,276.549 399.5,278C 392.167,278.667 384.833,278.667 377.5,278C 375.077,276.429 373.744,274.263 373.5,271.5C 373.5,266.5 373.5,261.5 373.5,256.5C 373.298,254.05 373.631,251.717 374.5,249.5C 375.343,247.827 376.676,246.66 378.5,246C 384.833,245.333 391.167,245.333 397.5,246C 399.881,246.223 401.547,247.39 402.5,249.5 Z"/></g>
<g><path style="opacity:1" fill="#f319d5" d="M 427.5,249.5 C 425.5,249.5 423.5,249.5 421.5,249.5C 420.833,249.167 420.167,248.833 419.5,248.5C 417.958,249.301 416.292,249.634 414.5,249.5C 414.5,246.5 414.5,243.5 414.5,240.5C 416.527,240.338 418.527,240.505 420.5,241C 422.722,243.956 425.055,246.79 427.5,249.5 Z"/></g>
<g><path style="opacity:1" fill="#f311db" d="M 454.5,248.5 C 452.708,248.634 451.042,248.301 449.5,247.5C 449.5,245.167 449.5,242.833 449.5,240.5C 451.167,240.5 452.833,240.5 454.5,240.5C 454.5,243.167 454.5,245.833 454.5,248.5 Z"/></g>
<g><path style="opacity:1" fill="#f526b1" d="M 421.5,249.5 C 423.5,249.5 425.5,249.5 427.5,249.5C 428.833,251.167 430.167,252.833 431.5,254.5C 429.5,254.5 427.5,254.5 425.5,254.5C 423.457,253.421 422.124,251.754 421.5,249.5 Z"/></g>
<g><path style="opacity:1" fill="#fb3b64" d="M 217.5,248.5 C 221.64,250.739 225.64,253.239 229.5,256C 221.625,260.77 213.625,265.27 205.5,269.5C 193.985,263.914 182.985,257.581 172.5,250.5C 187.871,251.15 202.871,250.484 217.5,248.5 Z"/></g>
<g><path style="opacity:1" fill="#f62aaf" d="M 345.5,245.5 C 345.5,248.833 345.5,252.167 345.5,255.5C 343.833,255.5 342.167,255.5 340.5,255.5C 340.5,252.833 340.5,250.167 340.5,247.5C 342.554,247.635 344.221,246.968 345.5,245.5 Z"/></g>
<g><path style="opacity:1" fill="#f61da3" d="M 369.5,247.5 C 370.552,249.256 372.219,249.923 374.5,249.5C 373.631,251.717 373.298,254.05 373.5,256.5C 371.833,256.5 370.167,256.5 368.5,256.5C 368.19,253.287 368.523,250.287 369.5,247.5 Z"/></g>
<g><path style="opacity:1" fill="#f61ea4" d="M 449.5,247.5 C 451.042,248.301 452.708,248.634 454.5,248.5C 454.5,251.167 454.5,253.833 454.5,256.5C 453.167,256.5 451.833,256.5 450.5,256.5C 450.737,257.791 450.404,258.791 449.5,259.5C 449.5,255.5 449.5,251.5 449.5,247.5 Z"/></g>
<g><path style="opacity:1" fill="#f7299f" d="M 407.5,247.5 C 408.479,250.625 408.813,253.958 408.5,257.5C 407.167,257.5 405.833,257.5 404.5,257.5C 404.768,259.099 404.434,260.432 403.5,261.5C 403.763,257.4 403.43,253.4 402.5,249.5C 404.781,249.923 406.448,249.256 407.5,247.5 Z"/></g>
<g><path style="opacity:1" fill="#f71b9d" d="M 419.5,248.5 C 419.5,251.5 419.5,254.5 419.5,257.5C 417.833,257.5 416.167,257.5 414.5,257.5C 414.5,254.833 414.5,252.167 414.5,249.5C 416.292,249.634 417.958,249.301 419.5,248.5 Z"/></g>
<g><path style="opacity:1" fill="#f82a8c" d="M 425.5,254.5 C 427.5,254.5 429.5,254.5 431.5,254.5C 433.137,256.475 434.804,258.475 436.5,260.5C 434.5,260.5 432.5,260.5 430.5,260.5C 428.11,259.109 426.443,257.109 425.5,254.5 Z"/></g>
<g><path style="opacity:1" fill="#f8188b" d="M 276.5,248.5 C 278.167,248.5 279.833,248.5 281.5,248.5C 280.814,252.287 281.814,255.454 284.5,258C 293.343,258.17 302.01,258.67 310.5,259.5C 300.167,259.5 289.833,259.5 279.5,259.5C 278.21,258.942 277.377,257.942 277,256.5C 276.503,253.854 276.336,251.187 276.5,248.5 Z"/></g>
<g><path style="opacity:1" fill="#fa2c79" d="M 459.5,258.5 C 473.167,258.5 486.833,258.5 500.5,258.5C 500.5,260.167 500.5,261.833 500.5,263.5C 486.833,263.5 473.167,263.5 459.5,263.5C 459.5,261.833 459.5,260.167 459.5,258.5 Z"/></g>
<g><path style="opacity:1" fill="#fa346d" d="M 279.5,259.5 C 289.833,259.5 300.167,259.5 310.5,259.5C 313.019,259.848 314.853,261.181 316,263.5C 316.499,267.486 316.666,271.486 316.5,275.5C 315.167,275.5 313.833,275.5 312.5,275.5C 312.806,272.615 312.473,269.948 311.5,267.5C 311.489,265.983 310.823,264.816 309.5,264C 300.833,263.667 292.167,263.333 283.5,263C 281.676,262.34 280.343,261.173 279.5,259.5 Z"/></g>
<g><path style="opacity:1" fill="#fa2c6c" d="M 414.5,257.5 C 416.167,257.5 417.833,257.5 419.5,257.5C 419.5,261.167 419.5,264.833 419.5,268.5C 419.167,268.5 418.833,268.5 418.5,268.5C 417.432,267.566 416.099,267.232 414.5,267.5C 414.5,264.167 414.5,260.833 414.5,257.5 Z"/></g>
<g><path style="opacity:1" fill="#fb425f" d="M 193.5,269.5 C 178.676,270.496 163.676,270.829 148.5,270.5C 148.334,261.494 148.5,252.494 149,243.5C 163.721,252.394 178.554,261.06 193.5,269.5 Z"/></g>
<g><path style="opacity:1" fill="#fa2e68" d="M 340.5,255.5 C 342.167,255.5 343.833,255.5 345.5,255.5C 345.5,258.167 345.5,260.833 345.5,263.5C 344.532,265.607 344.198,267.941 344.5,270.5C 343.167,270.5 341.833,270.5 340.5,270.5C 340.5,265.5 340.5,260.5 340.5,255.5 Z"/></g>
<g><path style="opacity:1" fill="#fb4a5e" d="M 238.5,257.5 C 246.316,258.492 254.316,258.826 262.5,258.5C 262.827,263.214 262.493,267.88 261.5,272.5C 260.14,273.18 258.807,273.847 257.5,274.5C 241.991,274.83 226.658,274.496 211.5,273.5C 220.299,267.93 229.299,262.596 238.5,257.5 Z"/></g>
<g><path style="opacity:1" fill="#fa3e66" d="M 368.5,256.5 C 370.167,256.5 371.833,256.5 373.5,256.5C 373.5,261.5 373.5,266.5 373.5,271.5C 371.958,272.301 370.292,272.634 368.5,272.5C 368.5,267.167 368.5,261.833 368.5,256.5 Z"/></g>
<g><path style="opacity:1" fill="#fb4567" d="M 408.5,257.5 C 408.5,262.5 408.5,267.5 408.5,272.5C 406.833,272.5 405.167,272.5 403.5,272.5C 403.5,268.833 403.5,265.167 403.5,261.5C 404.434,260.432 404.768,259.099 404.5,257.5C 405.833,257.5 407.167,257.5 408.5,257.5 Z"/></g>
<g><path style="opacity:1" fill="#fb4b64" d="M 430.5,260.5 C 432.5,260.5 434.5,260.5 436.5,260.5C 440.167,265.167 443.833,269.833 447.5,274.5C 445.5,274.5 443.5,274.5 441.5,274.5C 437.833,269.833 434.167,265.167 430.5,260.5 Z"/></g>
<g><path style="opacity:1" fill="#fa3b64" d="M 454.5,256.5 C 454.5,261.833 454.5,267.167 454.5,272.5C 453.167,272.5 451.833,272.5 450.5,272.5C 450.784,270.585 450.451,268.919 449.5,267.5C 449.5,264.833 449.5,262.167 449.5,259.5C 450.404,258.791 450.737,257.791 450.5,256.5C 451.833,256.5 453.167,256.5 454.5,256.5 Z"/></g>
<g><path style="opacity:1" fill="#fb555c" d="M 193.5,269.5 C 197.472,271.822 201.472,274.155 205.5,276.5C 207.243,274.962 209.243,273.962 211.5,273.5C 226.658,274.496 241.991,274.83 257.5,274.5C 254.669,276.417 251.669,278.083 248.5,279.5C 219.833,278.167 191.167,278.167 162.5,279.5C 157.08,277.47 152.413,274.47 148.5,270.5C 163.676,270.829 178.676,270.496 193.5,269.5 Z"/></g>
<g><path style="opacity:1" fill="#fb5957" d="M 414.5,267.5 C 416.099,267.232 417.432,267.566 418.5,268.5C 418.5,271.167 418.5,273.833 418.5,276.5C 417.167,276.5 415.833,276.5 414.5,276.5C 414.5,273.5 414.5,270.5 414.5,267.5 Z"/></g>
<g><path style="opacity:1" fill="#fc7455" d="M 449.5,267.5 C 450.451,268.919 450.784,270.585 450.5,272.5C 451.833,272.5 453.167,272.5 454.5,272.5C 454.5,276.167 454.5,279.833 454.5,283.5C 452.473,283.662 450.473,283.495 448.5,283C 446.332,280.002 443.999,277.169 441.5,274.5C 443.5,274.5 445.5,274.5 447.5,274.5C 448.117,274.611 448.617,274.944 449,275.5C 449.497,272.854 449.664,270.187 449.5,267.5 Z"/></g>
<g><path style="opacity:1" fill="#fd795e" d="M 345.5,263.5 C 345.5,270.167 345.5,276.833 345.5,283.5C 343.833,283.5 342.167,283.5 340.5,283.5C 340.5,279.167 340.5,274.833 340.5,270.5C 341.833,270.5 343.167,270.5 344.5,270.5C 344.198,267.941 344.532,265.607 345.5,263.5 Z"/></g>
<g><path style="opacity:1" fill="#fc7154" d="M 373.5,271.5 C 373.744,274.263 375.077,276.429 377.5,278C 384.833,278.667 392.167,278.667 399.5,278C 401.464,276.549 402.797,274.716 403.5,272.5C 405.167,272.5 406.833,272.5 408.5,272.5C 408.275,275.546 406.942,277.879 404.5,279.5C 393.833,279.5 383.167,279.5 372.5,279.5C 370.058,277.879 368.725,275.546 368.5,272.5C 370.292,272.634 371.958,272.301 373.5,271.5 Z"/></g>
<g><path style="opacity:1" fill="#fd825a" d="M 418.5,268.5 C 418.833,268.5 419.167,268.5 419.5,268.5C 419.5,273.5 419.5,278.5 419.5,283.5C 417.833,283.5 416.167,283.5 414.5,283.5C 414.5,281.167 414.5,278.833 414.5,276.5C 415.833,276.5 417.167,276.5 418.5,276.5C 418.5,273.833 418.5,271.167 418.5,268.5 Z"/></g>
<g><path style="opacity:1" fill="#fc824e" d="M 311.5,267.5 C 312.473,269.948 312.806,272.615 312.5,275.5C 313.833,275.5 315.167,275.5 316.5,275.5C 315.644,279.854 312.977,282.354 308.5,283C 297.839,283.5 287.172,283.667 276.5,283.5C 276.5,281.833 276.5,280.167 276.5,278.5C 287.172,278.667 297.839,278.5 308.5,278C 309.416,277.626 310.25,277.126 311,276.5C 311.498,273.518 311.665,270.518 311.5,267.5 Z"/></g>
<g><path style="opacity:1" fill="#fd874e" d="M 372.5,279.5 C 383.167,279.5 393.833,279.5 404.5,279.5C 403.251,281.136 401.584,282.303 399.5,283C 392.167,283.667 384.833,283.667 377.5,283C 375.416,282.303 373.749,281.136 372.5,279.5 Z"/></g>
<g><path style="opacity:1" fill="#fc854b" d="M 460.5,278.5 C 473.833,278.5 487.167,278.5 500.5,278.5C 500.5,280.167 500.5,281.833 500.5,283.5C 487.167,283.5 473.833,283.5 460.5,283.5C 460.5,281.833 460.5,280.167 460.5,278.5 Z"/></g>
<g><path style="opacity:1" fill="#fc6058" d="M 248.5,279.5 C 244.836,282.335 240.836,284.668 236.5,286.5C 215.833,286.5 195.167,286.5 174.5,286.5C 170.164,284.668 166.164,282.335 162.5,279.5C 191.167,278.167 219.833,278.167 248.5,279.5 Z"/></g>
<g><path style="opacity:1" fill="#fc6f56" d="M 174.5,286.5 C 195.167,286.5 215.833,286.5 236.5,286.5C 226.356,292.742 216.022,298.742 205.5,304.5C 194.978,298.742 184.644,292.742 174.5,286.5 Z"/></g>
</svg>
